<?xml version="1.0" encoding="utf-8"?>
<!-- Generator: Adobe Illustrator 25.3.1, SVG Export Plug-In . SVG Version: 6.00 Build 0)  -->
<svg version="1.1" id="Layer_1" xmlns="http://www.w3.org/2000/svg" xmlns:xlink="http://www.w3.org/1999/xlink" x="0px" y="0px"
	 viewBox="0 0 510.2 510.2" style="enable-background:new 0 0 510.2 510.2;" xml:space="preserve">
<style type="text/css">
	.st0{fill:none;}
</style>
<path class="st0" d="M407.3,191.3c-8.3-19.8-20.4-37.8-35.5-53c-15.1-15.2-33.1-27.3-52.8-35.6c-20.3-8.5-42-12.9-64-12.9h-0.7
	c-22.4,0.1-44,4.5-64.3,13.3c-19.7,8.5-37.5,20.6-52.5,35.8c-15,15.1-26.9,33.1-35.1,52.8c-8.5,20.5-12.8,42.5-12.6,64.6
	c0.1,25.6,6.2,51.1,17.7,73.9v56.2c0,9.4,7.6,17,17,17h56.1c22.9,11.5,48.1,17.6,73.7,17.7h0.8c22.1,0,43.5-4.3,63.7-12.7
	c19.7-8.2,37.6-20.1,52.7-35.2c15.2-15.1,27.2-32.8,35.6-52.5c8.7-20.4,13.1-42.1,13.2-64.5C420.3,233.8,415.9,211.9,407.3,191.3z
	 M204.8,283.5c-15.9,0-28.9-13-28.9-28.9s13-28.9,28.9-28.9s28.9,13,28.9,28.9S220.8,283.5,204.8,283.5z M305.2,283.5
	c-15.9,0-28.9-13-28.9-28.9s13-28.9,28.9-28.9s28.9,13,28.9,28.9S321.2,283.5,305.2,283.5z"/>
</svg>
