<?xml version="1.0" encoding="utf-8"?>
<!-- Generator: Adobe Illustrator 25.3.1, SVG Export Plug-In . SVG Version: 6.00 Build 0)  -->
<svg version="1.1" id="Layer_1" xmlns="http://www.w3.org/2000/svg" xmlns:xlink="http://www.w3.org/1999/xlink" x="0px" y="0px"
	 viewBox="0 0 60 60" style="enable-background:new 0 0 60 60;" xml:space="preserve">
<style type="text/css">
	.st0{fill:#FFFFFF;}
</style>
<path class="st0" d="M30,17.1c-7.1,0-12.8,5.7-12.8,12.8S22.9,42.7,30,42.7S42.8,37,42.8,29.9S37.1,17.1,30,17.1z M26.9,31.4
	c-0.4,0.4-1,0.7-1.5,0.7c-1.1,0-2.2-1.1-2.2-2.2s1.1-2.2,2.2-2.2c0.6,0,1.1,0.3,1.5,0.7c0.4,0.4,0.7,1,0.7,1.5S27.3,31,26.9,31.4z
	 M33.6,32.1c-0.6,0-1.1-0.3-1.5-0.7c-0.4-0.4-0.7-1-0.7-1.5s0.3-1.1,0.7-1.5c0.4-0.4,1-0.7,1.5-0.7c1.1,0,2.2,1.1,2.2,2.2
	S34.5,32.1,33.6,32.1z"/>
</svg>
