<svg xmlns="http://www.w3.org/2000/svg" viewBox="0 0 800 800" xml:space="preserve"><g style="opacity:.2"><path d="M321 505.3c29.1 82.5 119.5 125.8 202 96.8 9.8-3.4 19.2-7.9 28.1-13.1l54.7 15.6c7 2 14.3-2.1 16.3-9.1.7-2.4.7-4.9 0-7.2l-15.6-54.7c44.6-75.2 19.8-172.3-55.4-216.9-21.9-13-46.6-20.5-72.1-21.9 29 82.6-14.5 172.9-97.1 201.9-16.8 5.9-34.5 8.9-52.3 8.9-2.9-.1-5.7-.1-8.6-.3" style="opacity:9.000000e-02"/></g><path d="M625.4 535.8c45.8-85.7 13.5-192.3-72.1-238.1-19.2-10.3-40.2-16.9-61.9-19.5-38.2-89.3-141.5-130.8-230.9-92.6s-130.8 141.5-92.6 230.9q3 7.05 6.6 13.8L161 477.9c-4.7 16.3 4.8 33.4 21.1 38.1 5.5 1.6 11.4 1.6 16.9 0l47.6-13.6c19.3 10.3 40.3 16.9 62 19.5 38.2 89.4 141.6 130.8 231 92.6q7.05-3 13.8-6.6l47.6 13.6c16.3 4.7 33.4-4.8 38-21.1 1.6-5.5 1.6-11.4 0-16.9zm-376.5-70c-1.6 0-3.3.2-4.8.7L197 479.9l13.4-47.1c1.3-4.7.7-9.7-1.8-13.8-39.6-66.8-17.6-153 49.2-192.6s153.1-17.6 192.7 49.2 17.6 153.1-49.2 192.7c-44.2 26.2-99.2 26.2-143.5 0-2.7-1.6-5.8-2.5-8.9-2.5m342.5 58.8c-2.5 4.2-3.1 9.2-1.8 13.8l13.4 47.1-47-13.5c-4.7-1.3-9.7-.7-13.8 1.8-66.9 39.6-153.2 17.6-192.9-49.3-.5-.8-.9-1.5-1.3-2.3 96.5-10 166.6-96.3 156.7-192.8-.5-4.5-1.1-9-1.9-13.5 75.7 17.9 122.5 93.7 104.6 169.3-3.4 13.8-8.8 27.1-16 39.4" style="fill:#fff"/></svg>