<?xml version="1.0" encoding="utf-8"?>
<!-- Generator: Adobe Illustrator 25.3.1, SVG Export Plug-In . SVG Version: 6.00 Build 0)  -->
<svg version="1.1" id="Layer_1" xmlns="http://www.w3.org/2000/svg" xmlns:xlink="http://www.w3.org/1999/xlink" x="0px" y="0px"
	 viewBox="0 0 60 60" style="enable-background:new 0 0 60 60;" xml:space="preserve">
<style type="text/css">
	.st0{fill:#FFFFFF;}
</style>
<path class="st0" d="M17.4,23.1c0.3-0.8,1.1-1.3,1.9-1.4h18.2l-0.6,1.6c-0.3,0.8-1.1,1.3-1.9,1.4H16.8L17.4,23.1z"/>
<path class="st0" d="M36.9,36.9c-0.3,0.8-1.1,1.3-1.9,1.3H16.8l0.6-1.6c0.3-0.8,1.1-1.4,1.9-1.3h18.2L36.9,36.9z"/>
<path class="st0" d="M39.6,30.1c-0.3,0.8-1.1,1.4-1.9,1.4H16.8l0.6-1.6c0.3-0.8,1.1-1.4,1.9-1.4h20.9L39.6,30.1z"/>
</svg>
