<?xml version="1.0" encoding="utf-8"?>
<!-- Generator: Adobe Illustrator 25.3.1, SVG Export Plug-In . SVG Version: 6.00 Build 0)  -->
<svg version="1.1" id="Layer_1" xmlns="http://www.w3.org/2000/svg" xmlns:xlink="http://www.w3.org/1999/xlink" x="0px" y="0px"
	 viewBox="0 0 372.5 372.5" style="enable-background:new 0 0 372.5 372.5;" xml:space="preserve">
<style type="text/css">
	.st0{fill:#FFFFFF;}
</style>
<path class="st0" d="M287,227.8c0-11.8-3.5-23.2-10.2-32.9c-4.8-7-11-12.8-18.2-17.2c8.4-8,13.7-19.3,13.7-31.8
	c0-24.2-19.7-43.9-43.9-43.9c-14.3,0-27.8,7.1-35.9,18.7c-2.1-0.3-4.2-0.5-6.3-0.5c-2.2,0-4.3,0.2-6.3,0.5
	c-8.2-11.6-21.6-18.7-35.9-18.7c-24.2,0-43.9,19.7-43.9,43.9c0,12.5,5.3,23.8,13.7,31.8c-7.2,4.3-13.4,10.2-18.2,17.2
	c-6.7,9.8-10.2,21.1-10.2,32.9v24.4h42.3v18.3h117v-18.3h42.3L287,227.8z M228.5,112.8c18.2,0,33,14.8,33,33s-14.8,33-33,33
	c-0.3,0-0.7,0-1,0c0-0.1,0-0.1,0.1-0.2c0.6-1.6,1-3.3,1.4-4.9c0-0.1,0.1-0.2,0.1-0.4c0.1-0.5,0.2-0.9,0.3-1.4c0-0.2,0.1-0.4,0.1-0.6
	c0.1-0.7,0.2-1.4,0.3-2.1c0-0.4,0.1-0.7,0.1-1.1c0-0.4,0.1-0.7,0.1-1.1c0-0.3,0-0.6,0.1-0.9c0-0.6,0-1.3,0-1.9c0,0,0-0.1,0-0.1
	c0,0,0-0.1,0-0.1c0-0.6,0-1.3,0-1.9c0-0.2,0-0.4,0-0.6c0-0.5-0.1-1.1-0.1-1.6c0-0.1,0-0.2,0-0.4c-1.6-15.8-11.6-29.3-26-35.6
	C210,117,219,112.8,228.5,112.8 M174.8,133.1c0.1,0,0.2-0.1,0.3-0.1c0.8-0.3,1.5-0.5,2.3-0.7c2.9-0.8,5.8-1.2,8.8-1.2
	c3.2,0,6.3,0.5,9.4,1.4c0.3,0.1,0.5,0.2,0.8,0.2c0.3,0.1,0.7,0.2,1,0.3c0.1,0,0.2,0.1,0.3,0.1c11,4.1,19.3,13.9,21.2,25.9l0,0.3
	c0.1,0.4,0.1,0.8,0.2,1.2c0,0.2,0,0.3,0,0.5c0,0.4,0.1,0.7,0.1,1.1c0,0.2,0,0.3,0,0.5c0,0.5,0,1,0,1.5c0,0,0,0.1,0,0.1l0,0.1
	c0,0.5,0,0.9,0,1.4c0,0.1,0,0.3,0,0.4c0,0.5-0.1,0.9-0.1,1.3c0,0.2,0,0.3-0.1,0.5c0,0.3-0.1,0.6-0.1,0.9c0,0.2-0.1,0.4-0.1,0.7
	c-0.1,0.8-0.3,1.6-0.5,2.4c-0.1,0.4-0.2,0.9-0.3,1.3c0,0.2-0.1,0.3-0.1,0.5c-0.1,0.2-0.2,0.5-0.2,0.7c-0.1,0.2-0.1,0.4-0.2,0.6
	c-0.1,0.2-0.2,0.4-0.2,0.7c-0.1,0.4-0.3,0.7-0.4,1.1c-0.1,0.2-0.1,0.3-0.2,0.5c-0.1,0.3-0.3,0.6-0.4,0.9l-0.1,0.1
	c-0.1,0.1-0.1,0.2-0.2,0.3c-0.2,0.3-0.3,0.6-0.5,1c-0.1,0.1-0.1,0.3-0.2,0.4l0,0c-0.2,0.3-0.4,0.7-0.6,1c-0.1,0.1-0.2,0.3-0.2,0.4
	c-0.2,0.4-0.4,0.7-0.7,1c-0.1,0.2-0.3,0.4-0.4,0.6c-0.1,0.2-0.3,0.4-0.4,0.5c-0.3,0.4-0.6,0.8-0.9,1.1c-0.2,0.2-0.4,0.5-0.6,0.7
	c-0.1,0.1-0.2,0.3-0.4,0.4c-0.2,0.2-0.4,0.4-0.6,0.7c-0.1,0.1-0.2,0.3-0.4,0.4c-0.3,0.3-0.7,0.7-1,1c-0.2,0.2-0.4,0.4-0.6,0.6
	c-0.1,0.1-0.3,0.3-0.4,0.4c-0.4,0.3-0.7,0.6-1.1,0.9c-0.3,0.2-0.6,0.5-0.9,0.7c-0.1,0.1-0.2,0.1-0.2,0.2c-5.5,4.1-12.3,6.5-19.7,6.5
	c-7.4,0-14.2-2.4-19.7-6.5l-0.2-0.2c-0.3-0.2-0.6-0.5-0.9-0.7c-0.1-0.1-0.2-0.2-0.4-0.3c-0.2-0.2-0.5-0.4-0.7-0.6
	c-0.1-0.1-0.3-0.3-0.4-0.4c-0.2-0.2-0.4-0.4-0.6-0.6c-0.3-0.3-0.7-0.7-1-1c-0.1-0.1-0.2-0.2-0.4-0.4c-0.2-0.2-0.4-0.4-0.6-0.7
	c-0.1-0.1-0.2-0.3-0.4-0.4c-0.3-0.4-0.6-0.7-0.9-1.1c-0.2-0.2-0.3-0.4-0.5-0.7c-0.1-0.2-0.3-0.4-0.4-0.5c-0.1-0.2-0.3-0.4-0.4-0.6
	c-0.2-0.3-0.5-0.7-0.7-1c-0.1-0.1-0.2-0.3-0.2-0.4c-0.2-0.3-0.4-0.7-0.6-1c-0.1-0.1-0.1-0.3-0.2-0.4c-0.2-0.3-0.3-0.6-0.5-1
	c-0.1-0.1-0.1-0.2-0.2-0.4l0-0.1c-0.1-0.3-0.3-0.6-0.4-1c-0.1-0.2-0.1-0.3-0.2-0.5c-0.2-0.4-0.3-0.8-0.5-1.1
	c-0.1-0.2-0.1-0.4-0.2-0.6c-0.1-0.2-0.1-0.4-0.2-0.6c-0.1-0.2-0.2-0.5-0.2-0.7c-0.1-0.4-0.2-0.7-0.3-1.1c-0.1-0.2-0.1-0.5-0.2-0.8
	c0-0.2-0.1-0.4-0.1-0.6c-0.1-0.2-0.1-0.5-0.2-0.7c-0.1-0.4-0.1-0.8-0.2-1.1c0-0.2-0.1-0.4-0.1-0.6c0-0.3-0.1-0.6-0.1-0.9
	c0-0.2,0-0.3-0.1-0.5c0-0.5-0.1-0.9-0.1-1.4c0-0.1,0-0.3,0-0.4c0-0.5,0-1,0-1.5c0-0.5,0-1.1,0-1.6c0-0.1,0-0.3,0-0.4
	c0-0.4,0.1-0.8,0.1-1.2c0-0.1,0-0.3,0-0.4c0-0.4,0.1-0.8,0.2-1.3c0-0.1,0-0.2,0-0.2C155.5,147.1,163.8,137.2,174.8,133.1
	 M110.9,145.9c0-18.2,14.8-33,33-33c9.5,0,18.5,4.1,24.7,11.1c-14.4,6.3-24.4,19.8-26,35.6c0,0.1,0,0.2,0,0.3
	c-0.1,0.6-0.1,1.1-0.1,1.7c0,0.2,0,0.3,0,0.5c0,0.7-0.1,1.4-0.1,2c0,0.7,0,1.4,0.1,2.1c0,0.3,0,0.6,0.1,0.8c0,0.4,0.1,0.8,0.1,1.2
	c0,0.4,0.1,0.7,0.1,1c0.1,0.7,0.2,1.4,0.3,2.1c0,0.2,0.1,0.5,0.1,0.7c0.1,0.4,0.2,0.9,0.3,1.3c0,0.1,0.1,0.3,0.1,0.4
	c0.4,1.6,0.8,3.2,1.4,4.8c0,0.1,0.1,0.2,0.1,0.3c-0.3,0-0.7,0-1,0C125.7,178.9,110.9,164.1,110.9,145.9 M136.8,214.9
	c-0.1,0.2-0.2,0.4-0.3,0.6c-0.2,0.4-0.5,0.8-0.7,1.2c-0.1,0.2-0.3,0.5-0.4,0.7c-0.3,0.6-0.7,1.2-1,1.8c-0.2,0.4-0.4,0.8-0.6,1.1
	c-0.1,0.2-0.2,0.5-0.4,0.7c-0.2,0.4-0.4,0.8-0.6,1.2c-0.1,0.2-0.2,0.4-0.3,0.7c-0.2,0.5-0.4,1-0.6,1.5c-0.1,0.1-0.1,0.3-0.2,0.4
	c-0.3,0.6-0.5,1.3-0.7,1.9c-0.1,0.1-0.1,0.3-0.1,0.4c-0.2,0.5-0.3,1-0.5,1.5c-0.1,0.2-0.1,0.5-0.2,0.7c-0.1,0.4-0.3,0.8-0.4,1.3
	c-0.1,0.3-0.1,0.5-0.2,0.8c-0.1,0.4-0.2,0.8-0.3,1.2c-0.2,0.7-0.3,1.4-0.4,2c-0.1,0.3-0.1,0.5-0.1,0.8c-0.1,0.5-0.2,0.9-0.2,1.4
	c0,0.2-0.1,0.4-0.1,0.6c-0.1,0.7-0.2,1.4-0.3,2l0,0c-0.1,0.6-0.1,1.2-0.2,1.9H96.3v-13.6c0-18.5,10.7-35.2,27.4-43.1
	c6.3,3.3,13.3,5,20.3,5c2.1,0,4.3-0.2,6.4-0.5c0.3,0.5,0.7,0.9,1,1.4c0.1,0.2,0.2,0.3,0.4,0.5c0.3,0.4,0.7,0.9,1,1.3
	c0.1,0.2,0.3,0.3,0.4,0.5c0.5,0.6,1,1.2,1.6,1.7c0.3,0.3,0.6,0.7,1,1c0.1,0.1,0.2,0.2,0.4,0.4c-0.5,0.3-0.9,0.6-1.4,0.9
	c-0.1,0-0.1,0.1-0.2,0.1c-0.5,0.3-0.9,0.6-1.4,0.9c-0.2,0.1-0.3,0.2-0.5,0.3c-0.4,0.3-0.8,0.6-1.2,0.9c-0.1,0.1-0.3,0.2-0.4,0.3
	c-0.5,0.4-1,0.8-1.5,1.2c-0.1,0.1-0.2,0.2-0.3,0.3c-0.5,0.4-1.1,0.9-1.6,1.4c-0.4,0.3-0.8,0.7-1.1,1c-0.1,0.1-0.2,0.2-0.3,0.3
	c-0.5,0.4-0.9,0.9-1.4,1.3c-0.1,0.1-0.2,0.2-0.3,0.4c-0.3,0.3-0.7,0.7-1,1.1c-0.1,0.1-0.3,0.3-0.4,0.4c-0.4,0.4-0.7,0.8-1.1,1.2
	c-0.1,0.1-0.1,0.1-0.2,0.2c-0.4,0.5-0.8,1-1.2,1.5c-0.1,0.1-0.2,0.3-0.3,0.4c-0.3,0.4-0.6,0.8-0.9,1.2c-0.1,0.1-0.2,0.3-0.3,0.5
	c-0.4,0.5-0.8,1-1.1,1.6C137.5,213.7,137.2,214.3,136.8,214.9 M138.5,259.7v-13.6c0-0.6,0-1.2,0-1.8c0-0.2,0-0.4,0-0.6
	c0-0.4,0-0.8,0.1-1.2c0-0.2,0-0.5,0.1-0.7c0-0.3,0.1-0.7,0.1-1c0-0.3,0.1-0.5,0.1-0.8c0-0.3,0.1-0.7,0.1-1c0-0.3,0.1-0.5,0.1-0.8
	c0.1-0.3,0.1-0.6,0.2-1c0.1-0.3,0.1-0.5,0.2-0.8c0.1-0.3,0.1-0.6,0.2-0.9c0.1-0.3,0.1-0.5,0.2-0.8c0.1-0.3,0.1-0.6,0.2-0.9
	c0.1-0.3,0.2-0.5,0.2-0.8c0.1-0.3,0.2-0.6,0.3-0.9c0.1-0.3,0.2-0.5,0.3-0.8c0.1-0.3,0.2-0.6,0.3-0.8c0.1-0.3,0.2-0.5,0.3-0.8
	c0.1-0.3,0.2-0.6,0.3-0.8c0.1-0.3,0.2-0.5,0.3-0.8c0.1-0.3,0.2-0.5,0.3-0.8c0.1-0.3,0.2-0.5,0.3-0.8c0.1-0.3,0.2-0.5,0.4-0.8
	c0.1-0.3,0.2-0.5,0.4-0.8c0.1-0.3,0.3-0.5,0.4-0.8c0.1-0.3,0.3-0.5,0.4-0.8c0.1-0.3,0.3-0.5,0.4-0.8c0.1-0.2,0.3-0.5,0.4-0.7
	c0.1-0.2,0.3-0.5,0.4-0.7c0.1-0.2,0.3-0.5,0.5-0.7c0.2-0.2,0.3-0.5,0.5-0.7c0.2-0.2,0.3-0.5,0.5-0.7c0.2-0.2,0.3-0.5,0.5-0.7
	c0.2-0.2,0.3-0.5,0.5-0.7c0.2-0.2,0.3-0.5,0.5-0.7c0.2-0.2,0.4-0.5,0.5-0.7c0.2-0.2,0.4-0.4,0.5-0.7c0.2-0.2,0.4-0.4,0.6-0.7
	c0.2-0.2,0.4-0.4,0.6-0.6c0.2-0.2,0.4-0.4,0.6-0.6c0.2-0.2,0.4-0.4,0.6-0.6c0.2-0.2,0.4-0.4,0.6-0.6c0.2-0.2,0.4-0.4,0.6-0.6
	c0.2-0.2,0.4-0.4,0.6-0.6c0.2-0.2,0.4-0.4,0.6-0.6c0.2-0.2,0.4-0.4,0.7-0.6c0.2-0.2,0.4-0.4,0.7-0.6c0.2-0.2,0.4-0.4,0.7-0.5
	c0.2-0.2,0.5-0.4,0.7-0.5c0.5-0.4,0.9-0.7,1.4-1c0.7-0.5,1.4-1,2.2-1.5c0.5-0.3,1-0.6,1.5-0.9c0.8-0.5,1.6-0.9,2.4-1.3
	c0.3-0.1,0.5-0.3,0.8-0.4c0.2-0.1,0.4-0.2,0.6-0.3c6.3,3.3,13.3,5,20.3,5c7.1,0,14.1-1.7,20.3-5c0.2,0.1,0.4,0.2,0.6,0.3
	c0.5,0.3,1.1,0.5,1.6,0.8c0.5,0.3,1,0.6,1.5,0.9c0.5,0.3,1,0.6,1.5,0.9c0.5,0.3,1,0.6,1.5,1c0.2,0.2,0.5,0.3,0.7,0.5
	c0.2,0.2,0.5,0.3,0.7,0.5c0.5,0.3,0.9,0.7,1.4,1.1c0.2,0.2,0.5,0.4,0.7,0.6c0.2,0.2,0.4,0.4,0.7,0.6c0.4,0.4,0.9,0.8,1.3,1.2
	c0.2,0.2,0.4,0.4,0.6,0.6c0.2,0.2,0.4,0.4,0.6,0.6c0.2,0.2,0.4,0.4,0.6,0.6c0.2,0.2,0.4,0.4,0.6,0.6c0.2,0.2,0.4,0.4,0.6,0.6
	c0.2,0.2,0.4,0.4,0.6,0.6c0.2,0.2,0.4,0.4,0.6,0.7c0.2,0.2,0.4,0.4,0.5,0.7c0.2,0.2,0.4,0.5,0.5,0.7c0.2,0.2,0.3,0.5,0.5,0.7
	c0.2,0.2,0.3,0.5,0.5,0.7c0.2,0.2,0.3,0.5,0.5,0.7c0.2,0.2,0.3,0.5,0.5,0.7c0.2,0.2,0.3,0.5,0.5,0.7c0.2,0.2,0.3,0.5,0.5,0.7
	c0.1,0.2,0.3,0.5,0.4,0.7c0.1,0.2,0.3,0.5,0.4,0.7s0.3,0.5,0.4,0.8c0.1,0.3,0.3,0.5,0.4,0.8c0.1,0.3,0.3,0.5,0.4,0.8
	c0.1,0.3,0.3,0.5,0.4,0.8c0.1,0.3,0.2,0.5,0.4,0.8c0.1,0.3,0.2,0.5,0.3,0.8c0.1,0.3,0.2,0.5,0.3,0.8c0.1,0.3,0.2,0.5,0.3,0.8
	c0.1,0.3,0.2,0.6,0.3,0.8c0.1,0.3,0.2,0.5,0.3,0.8c0.1,0.3,0.2,0.6,0.3,0.9c0.1,0.3,0.2,0.5,0.3,0.8c0.1,0.3,0.2,0.6,0.3,0.9
	c0.1,0.3,0.2,0.5,0.2,0.8c0.1,0.3,0.1,0.6,0.2,0.9c0.1,0.3,0.1,0.5,0.2,0.8c0.1,0.3,0.1,0.6,0.2,0.9c0.1,0.3,0.1,0.5,0.2,0.8
	c0.1,0.3,0.1,0.6,0.2,0.9c0,0.3,0.1,0.5,0.1,0.8c0,0.3,0.1,0.7,0.1,1c0,0.3,0.1,0.5,0.1,0.8c0,0.3,0.1,0.7,0.1,1
	c0,0.2,0,0.5,0.1,0.7c0,0.4,0,0.8,0.1,1.2c0,0.2,0,0.4,0,0.6c0,0.6,0,1.2,0,1.8v13.6L138.5,259.7z M244.6,241.4
	c-0.1-1.3-0.3-2.6-0.5-3.9c0-0.2-0.1-0.4-0.1-0.6c-0.1-0.5-0.2-0.9-0.2-1.4c0-0.2-0.1-0.5-0.1-0.7c-0.1-0.4-0.2-0.9-0.3-1.3
	c-0.2-0.9-0.4-1.9-0.7-2.8c-0.1-0.4-0.2-0.9-0.4-1.3c-0.1-0.2-0.1-0.5-0.2-0.7c-0.2-0.5-0.3-1-0.5-1.5c0-0.1-0.1-0.3-0.1-0.4
	c-0.2-0.6-0.5-1.3-0.7-1.9c-0.1-0.1-0.1-0.3-0.2-0.4c-0.2-0.5-0.4-1-0.6-1.5c-0.1-0.2-0.2-0.4-0.3-0.7c-0.2-0.4-0.4-0.8-0.6-1.2
	c-0.1-0.2-0.2-0.5-0.3-0.7c-0.3-0.6-0.6-1.2-1-1.9c-0.2-0.4-0.4-0.8-0.6-1.1c-0.1-0.2-0.3-0.5-0.4-0.7c-0.2-0.4-0.5-0.8-0.7-1.2
	c-0.1-0.2-0.2-0.4-0.3-0.6c-0.4-0.6-0.8-1.2-1.1-1.7c-0.4-0.5-0.7-1.1-1.1-1.6c-0.1-0.2-0.2-0.3-0.3-0.4c-0.3-0.4-0.6-0.8-0.9-1.2
	c-0.1-0.1-0.2-0.3-0.3-0.4c-0.4-0.5-0.8-1-1.2-1.5l-0.2-0.2c-0.8-0.9-1.7-1.9-2.5-2.7c-0.1-0.1-0.2-0.2-0.3-0.3
	c-0.4-0.4-0.9-0.9-1.4-1.3c-0.1-0.1-0.2-0.2-0.3-0.3c-0.4-0.3-0.8-0.7-1.1-1c-0.1-0.1-0.3-0.3-0.4-0.4c-0.4-0.3-0.8-0.7-1.2-1
	c-0.1-0.1-0.2-0.2-0.3-0.3c-0.5-0.4-1-0.8-1.5-1.2c-0.1-0.1-0.3-0.2-0.4-0.3c-1-0.7-2-1.4-3-2.1c-0.1-0.1-0.2-0.1-0.2-0.2
	c-0.5-0.3-0.9-0.6-1.4-0.9c0.1-0.1,0.2-0.2,0.4-0.4c0.3-0.3,0.7-0.7,1-1c0.5-0.6,1.1-1.1,1.6-1.7c0.1-0.2,0.3-0.3,0.4-0.5
	c0.4-0.4,0.7-0.9,1.1-1.3c0.1-0.1,0.2-0.3,0.3-0.4c0.3-0.5,0.7-0.9,1-1.4c2.1,0.3,4.2,0.5,6.4,0.5c7.1,0,14.1-1.7,20.3-5
	c16.7,7.9,27.4,24.6,27.4,43.1v13.6H244.6z"/>
</svg>
