<?xml version="1.0" encoding="utf-8"?>
<!-- Generator: Adobe Illustrator 25.3.1, SVG Export Plug-In . SVG Version: 6.00 Build 0)  -->
<svg version="1.1" id="Layer_1" xmlns="http://www.w3.org/2000/svg" xmlns:xlink="http://www.w3.org/1999/xlink" x="0px" y="0px"
	 viewBox="0 0 60 60" style="enable-background:new 0 0 60 60;" xml:space="preserve">
<style type="text/css">
	.st0{fill:#FFFFFF;}
</style>
<g>
	<path class="st0" d="M44.6,32.9c0-0.2,0.1-0.3,0.1-0.5s0.1-0.4,0.1-0.6c0-0.2,0.1-0.4,0.1-0.6c0-0.4,0.1-0.7,0.1-1.1l0,0l0,0
		c0-2.6-0.9-5.1-2.5-7.1l0,0c-0.1-0.2-0.3-0.4-0.5-0.5c-0.1-0.2-0.3-0.3-0.4-0.5c0,0,0,0-0.1-0.1c-2.6-2.8-6.6-4.6-11.1-4.6l0,0l0,0
		c-4.5,0-8.4,1.8-11.1,4.6c0,0,0,0-0.1,0.1s-0.3,0.3-0.4,0.5c-0.2,0.2-0.3,0.3-0.5,0.5l0,0c-1.5,2-2.5,4.5-2.5,7.1l0,0l0,0
		c0,0.4,0,0.8,0.1,1.1c0,0.2,0.1,0.4,0.1,0.6c0,0.2,0.1,0.4,0.1,0.6s0.1,0.3,0.1,0.5c0.1,0.2,0.1,0.5,0.2,0.7c0,0.1,0.1,0.2,0.1,0.3
		c0.5,1.4,1.2,2.7,2.2,3.8l0.1,0.1c1.9,2.1,4.5,3.7,7.5,4.4c0.1,0,0.3,0.1,0.4,0.1c0.3,0.1,0.5,0.1,0.8,0.2c0.3,0.1,0.7,0.1,1,0.1
		c0.1,0,0.2,0,0.4,0c0.4,0,0.8,0.1,1.3,0.1l0,0l0,0l0,0l0,0c0.4,0,0.8,0,1.3-0.1c0.1,0,0.2,0,0.4,0c0.3,0,0.7-0.1,1-0.1
		c0.3,0,0.6-0.1,0.8-0.2c0.1,0,0.3-0.1,0.4-0.1c3-0.7,5.6-2.3,7.5-4.4l0.1-0.1c1-1.1,1.7-2.4,2.2-3.8c0-0.1,0.1-0.2,0.1-0.3
		C44.4,33.4,44.5,33.2,44.6,32.9z M43.4,31.1c0,0.2,0,0.3-0.1,0.5c0,0.2-0.1,0.4-0.1,0.6c0,0.1-0.1,0.3-0.1,0.4
		c-0.1,0.2-0.1,0.5-0.2,0.7c0,0.1-0.1,0.1-0.1,0.2c-0.9,2.5-2.8,4.6-5.2,6c0,0,0,0-0.1,0c-1.2,0.7-2.5,1.2-3.9,1.5v-2.2h1.6
		c1.8,0,3.2-1.4,3.2-3.2V34h1c0.5,0,0.8-0.5,0.6-0.9l-1.6-3v-1.2c0-2.3-1-4.3-2.5-5.8c-1.4-1.4-3.4-2.3-5.5-2.4v5.7
		c1.5,0.6,2.6,2,2.6,3.7c0,2-1.5,3.7-3.4,4c0.4,1.2,1.5,2,2.8,2h1.8c0.2-0.4,0.6-0.7,1.1-0.7c0.6,0,1.1,0.5,1.1,1.1
		s-0.5,1.1-1.1,1.1c-0.5,0-0.9-0.3-1.1-0.7h-1.8c-1.8,0-3.2-1.2-3.7-2.8c-2.1-0.1-3.7-1.9-3.7-4c0-1.7,1-3.1,2.5-3.7v-5.3
		c-3.3,1.1-5.6,4.2-5.6,7.9c0,2.4,1,4.5,2.6,6v5.2c-0.4-0.2-0.8-0.4-1.2-0.6c0,0,0,0-0.1,0c-2.4-1.4-4.3-3.5-5.2-6
		c0-0.1-0.1-0.1-0.1-0.2c-0.1-0.2-0.2-0.5-0.2-0.7c0-0.1-0.1-0.3-0.1-0.4c0-0.2-0.1-0.4-0.1-0.6s-0.1-0.3-0.1-0.5
		c0-0.3-0.1-0.7-0.1-1c0-6.2,5.8-11.3,13-11.3s13,5.1,13,11.3C43.5,30.4,43.5,30.8,43.4,31.1z"/>
</g>
</svg>
