<svg xmlns="http://www.w3.org/2000/svg" viewBox="0 0 800 800" xml:space="preserve"><path d="M400 637.5c123.8 0 224.2-100.4 224.2-224.2S523.8 189.1 400 189.1 175.8 289.5 175.8 413.3c0 40.2 10.6 78 29.1 110.6l-29.1 113.6L293 610.3c31.7 17.4 68.2 27.2 107 27.2m0-34.5c104.8 0 189.7-84.9 189.7-189.7S504.8 223.6 400 223.6s-189.7 84.9-189.7 189.7c0 40.5 12.7 78 34.2 108.8l-17 63.7 64.9-16.2C323 590.7 360 603 400 603" style="fill-rule:evenodd;clip-rule:evenodd;fill:#bfc8d0"/><linearGradient id="a" gradientUnits="userSpaceOnUse" x1="112.711" y1="786.307" x2="98.297" y2="772.854" gradientTransform="matrix(25 0 0 -25 -2256 19904)"><stop offset="0" style="stop-color:#5bd066"/><stop offset="1" style="stop-color:#27b43e"/></linearGradient><path d="M592.2 397.3c0 106.1-86 192.2-192.2 192.2-40.5 0-78-12.5-109-33.9L225.3 572l17.2-64.6c-21.9-31.2-34.7-69.2-34.7-110.2 0-106.1 86-192.2 192.2-192.2 106.1.1 192.2 86.2 192.2 192.3" style="fill:url(#a)"/><path d="M400 621.5c123.8 0 224.2-100.4 224.2-224.2S523.8 173.1 400 173.1 175.8 273.5 175.8 397.3c0 40.2 10.6 78 29.1 110.6l-29.1 113.6L293 594.3c31.7 17.4 68.2 27.2 107 27.2m0-34.5c104.8 0 189.7-84.9 189.7-189.7S504.8 207.6 400 207.6s-189.7 84.9-189.7 189.7c0 40.5 12.7 78 34.2 108.8l-17 63.7 64.9-16.2C323 574.7 360 587 400 587" style="fill-rule:evenodd;clip-rule:evenodd;fill:#fff"/><path d="M343.9 293.2c-5.3-10.7-13.5-9.8-21.8-9.8-14.8 0-37.8 17.7-37.8 50.6 0 27 11.9 56.5 51.9 100.7 38.7 42.6 89.4 64.7 131.6 63.9 42.2-.7 50.8-37 50.8-49.3 0-5.4-3.4-8.1-5.7-8.9-14.4-6.9-40.9-19.7-46.9-22.2s-9.2.9-11.1 2.6c-5.5 5.2-16.3 20.6-20 24-3.7 3.5-9.2 1.7-11.5.4-8.4-3.2-31.4-13.4-49.7-31.2-22.6-22-24-29.5-28.2-36.2-3.4-5.4-.9-8.7.3-10.1 4.9-5.6 11.6-14.3 14.6-18.6s.6-10.9-.8-15c-6.1-17.6-11.4-32.3-15.7-40.9" style="fill:#fff"/></svg>