<?xml version="1.0" encoding="utf-8"?>
<!-- Generator: Adobe Illustrator 25.3.1, SVG Export Plug-In . SVG Version: 6.00 Build 0)  -->
<svg version="1.1" id="Layer_1" xmlns="http://www.w3.org/2000/svg" xmlns:xlink="http://www.w3.org/1999/xlink" x="0px" y="0px"
	 viewBox="0 0 403.8 403.8" style="enable-background:new 0 0 403.8 403.8;" xml:space="preserve">
<style type="text/css">
	.st0{fill:url(#SVGID_1_);}
</style>
<linearGradient id="SVGID_1_" gradientUnits="userSpaceOnUse" x1="36.6933" y1="204.15" x2="367.2" y2="204.15" gradientTransform="matrix(1 0 0 -1 0 406)">
	<stop  offset="9.990505e-02" style="stop-color:#420AC7"/>
	<stop  offset="0.324" style="stop-color:#470AC8"/>
	<stop  offset="0.5836" style="stop-color:#550BC9"/>
	<stop  offset="0.8598" style="stop-color:#6C0CCC"/>
	<stop  offset="0.9196" style="stop-color:#720CCD"/>
</linearGradient>
<path class="st0" d="M354.2,137.7c-8.3-19.8-20.4-37.8-35.5-53s-33.1-27.3-52.8-35.6c-20.3-8.5-42-12.9-64-12.9h-0.7
	c-22.4,0.1-44,4.5-64.3,13.3C117.2,58,99.4,70.1,84.4,85.3c-15,15.1-26.9,33.1-35.1,52.8c-8.5,20.5-12.8,42.5-12.6,64.6
	c0.1,25.6,6.2,51.1,17.7,73.9v56.2c0,9.4,7.6,17,17,17h56.1c22.9,11.5,48.1,17.6,73.7,17.7h0.8c22.1,0,43.5-4.3,63.7-12.7
	c19.7-8.2,37.6-20.1,52.7-35.2c15.2-15.1,27.2-32.8,35.6-52.5c8.7-20.4,13.1-42.1,13.2-64.5C367.2,180.1,362.8,158.3,354.2,137.7z
	 M151.7,229.9c-15.9,0-28.9-13-28.9-28.9s13-28.9,28.9-28.9s28.9,13,28.9,28.9S167.7,229.9,151.7,229.9z M252.1,229.9
	c-15.9,0-28.9-13-28.9-28.9s13-28.9,28.9-28.9s28.9,13,28.9,28.9S268.1,229.9,252.1,229.9z"/>
</svg>
