<?xml version="1.0" encoding="utf-8"?>
<!-- Generator: Adobe Illustrator 25.3.1, SVG Export Plug-In . SVG Version: 6.00 Build 0)  -->
<svg version="1.1" id="Layer_1" xmlns="http://www.w3.org/2000/svg" xmlns:xlink="http://www.w3.org/1999/xlink" x="0px" y="0px"
	 viewBox="0 0 56 64" style="enable-background:new 0 0 56 64;" xml:space="preserve">
<style type="text/css">
	.st0{fill-rule:evenodd;clip-rule:evenodd;fill:#272728;}
	.st1{fill:#FFFFFF;}
	.st2{fill-rule:evenodd;clip-rule:evenodd;fill:#333335;}
	.st3{opacity:0.5;fill-rule:evenodd;clip-rule:evenodd;fill:#F7F7F9;enable-background:new    ;}
</style>
<path class="st0" d="M5.1,0C2.3,0,0,2.3,0,5.1v53.8C0,61.7,2.3,64,5.1,64h45.8c2.8,0,5.1-2.3,5.1-5.1V20.3L37.1,0H5.1z"/>
<path class="st1" d="M20.3,28.5c0.1,0.1,0.2,0.3,0.2,0.5c0,0.4-0.3,0.7-0.7,0.7c-0.2,0-0.4-0.1-0.5-0.2c-0.7-0.8-1.9-1.4-3-1.4
	c-2.6,0-4.6,2-4.6,4.9c0,2.8,2,4.9,4.6,4.9c1.1,0,2.2-0.5,3-1.4c0.1-0.1,0.3-0.2,0.5-0.2c0.4,0,0.7,0.4,0.7,0.7
	c0,0.2-0.1,0.4-0.2,0.5c-0.9,1-2.2,1.7-4,1.7c-3.5,0-6.2-2.5-6.2-6.2s2.7-6.2,6.2-6.2C18.1,26.8,19.4,27.5,20.3,28.5z M27.1,39.2
	c-1.8,0-3.2-0.6-4.2-1.5c-0.2-0.1-0.2-0.3-0.2-0.5c0-0.4,0.3-0.8,0.7-0.8c0.1,0,0.3,0,0.4,0.1c0.8,0.7,2,1.3,3.4,1.3
	c2.1,0,2.8-1.2,2.8-2.1c0-3.1-7.1-1.4-7.1-5.7c0-2,1.8-3.3,4.1-3.3c1.5,0,2.9,0.5,3.9,1.3c0.2,0.1,0.3,0.3,0.3,0.5
	c0,0.4-0.3,0.7-0.7,0.7c-0.1,0-0.3-0.1-0.4-0.2c-0.9-0.7-2-1-3.1-1c-1.4,0-2.5,0.8-2.5,1.9c0,2.7,7.1,1.2,7.1,5.6
	C31.5,37.4,30.3,39.2,27.1,39.2z M44.1,28l-4.2,10.3c-0.2,0.5-0.7,0.8-1.2,0.8l0,0c-0.5,0-1-0.3-1.2-0.8L33.4,28
	c0-0.1-0.1-0.2-0.1-0.3c0-0.4,0.3-0.8,0.8-0.8c0.3,0,0.6,0.2,0.7,0.5l3.9,10l3.9-10c0.1-0.3,0.4-0.5,0.7-0.5c0.5,0,0.8,0.4,0.8,0.8
	C44.2,27.8,44.1,27.9,44.1,28z"/>
<g>
	<path class="st2" d="M56,20.4v1H43.2c0,0-6.3-1.3-6.1-6.7c0,0,0.2,5.7,6,5.7H56z"/>
	<path class="st3" d="M37.1,0v14.6c0,1.7,1.1,5.8,6.1,5.8H56C56,20.4,37.1,0,37.1,0z"/>
</g>
</svg>
