<?xml version="1.0" encoding="utf-8"?>
<!-- Generator: Adobe Illustrator 25.3.1, SVG Export Plug-In . SVG Version: 6.00 Build 0)  -->
<svg version="1.1" id="Layer_1" xmlns="http://www.w3.org/2000/svg" xmlns:xlink="http://www.w3.org/1999/xlink" x="0px" y="0px"
	 viewBox="0 0 403.8 403.8" style="enable-background:new 0 0 403.8 403.8;" xml:space="preserve">
<style type="text/css">
	.st0{fill-rule:evenodd;clip-rule:evenodd;fill:url(#SVGID_1_);}
</style>
<linearGradient id="SVGID_1_" gradientUnits="userSpaceOnUse" x1="301.8364" y1="84.5197" x2="102.1636" y2="322.4803" gradientTransform="matrix(1 0 0 -1 0 406)">
	<stop  offset="9.990505e-02" style="stop-color:#420AC7"/>
	<stop  offset="0.324" style="stop-color:#470AC8"/>
	<stop  offset="0.5836" style="stop-color:#550BC9"/>
	<stop  offset="0.8598" style="stop-color:#6C0CCC"/>
	<stop  offset="0.9196" style="stop-color:#720CCD"/>
</linearGradient>
<path class="st0" d="M202,47L202,47c-85.5,0-155.5,70-155.5,155.5l0,0C46.5,288,116.5,358,202,358l0,0c85.5,0,155.5-70,155.5-155.5
	l0,0C357.5,117,287.5,47,202,47z M202,122.7c8.4,0,15.3,6.8,15.3,15.3c0,8.5-6.8,15.3-15.3,15.3s-15.3-6.9-15.3-15.3
	C186.7,129.6,193.6,122.7,202,122.7z M212,170.6c0,5.4-4.5,10-10,10s-10-4.5-10-10s4.5-10,10-10C207.5,160.6,212,165.1,212,170.6z
	 M273.6,178.9L273.6,178.9c-0.1,1.4-0.9,2.9-2.1,3.5l-65,37.6c-2.8,1.6-6.2,1.6-9,0l-48.1-27.7c-0.6-0.4-1.3,0.1-1.3,0.7v8.8
	c0,0.3,0.2,0.6,0.4,0.7l49,28.3c2.8,1.6,6.2,1.6,9,0l63.1-36.4c1.7-1,4,0.2,4,2.1v11.5v3.9v10.8v10.3v7.2c0,1.4-0.8,2.9-2.1,3.5
	l-65,37.4c-2.8,1.6-6.2,1.6-9,0l-65-37.6c-1.3-0.8-2.1-2.1-2.1-3.5v-15.3c0-1,1-1.5,2-1l65.1,37.5c2.8,1.6,6.2,1.6,9,0l49-28.3
	c0.2-0.2,0.4-0.4,0.4-0.7v-8.8c0-0.7-0.7-1-1.3-0.7l-48.1,27.7c-2.8,1.6-6.2,1.6-9,0L132.5,213c-1.4-0.8-2.3-2.3-2.3-3.9v-4.7v-12.6
	V181v-1.6v-18.2l34.1-19.7c7-4,15.7,0.8,15.7,8.5v0.2c0,1.1-0.7,2.3-1.7,2.9l-31,18.1l50,28.9c2.8,1.6,6.2,1.6,9,0l50-28.9l-31-17.9
	c-1-0.6-1.7-1.7-1.7-2.9v-0.2c0-7.7,8.8-12.6,15.7-8.5l34.1,19.7l0.1,12.6L273.6,178.9L273.6,178.9z"/>
</svg>
