<?xml version="1.0" encoding="utf-8"?>
<!-- Generator: Adobe Illustrator 25.3.1, SVG Export Plug-In . SVG Version: 6.00 Build 0)  -->
<svg version="1.1" id="Layer_1" xmlns="http://www.w3.org/2000/svg" xmlns:xlink="http://www.w3.org/1999/xlink" x="0px" y="0px"
	 viewBox="0 0 1034 1024" style="enable-background:new 0 0 1034 1024;" xml:space="preserve">
<style type="text/css">
	.st0{fill-opacity:0;}
	.st1{fill-opacity:0.85;}
</style>
<g>
	<rect x="82.5" y="65.7" class="st0" width="897.8" height="898.5"/>
	<path class="st1" d="M980.3,514.7c0,245.9-202.9,448.7-449.1,448.7c-245.9,0-448.7-202.9-448.7-448.7
		C82.5,268.5,285.1,65.7,531,65.7C777.2,65.7,980.3,268.5,980.3,514.7z M420.3,255.4c-45.9,0-70.2,24.1-70.2,70.5v360.5
		c0,46.9,23.5,70.5,70.2,70.5h241.6c46.5,0,70-24.1,70-70.5V476.9H552.6c-27.5,0-40.7-13.4-40.7-41V255.4H420.3z M542.2,430.3
		c0,10.9,5.2,16.3,15.9,16.3h170.4c-1.1-7.5-6.7-14.6-14.6-22.7L564.4,273.7c-7.9-8.1-15.2-13.8-22.3-15.1V430.3z"/>
</g>
</svg>
