<svg data-name="Layer 1" xmlns="http://www.w3.org/2000/svg" viewBox="0 0 160 138.59">
    <path
        d="M111.26 93.48c0 24.08-17.59 45.11-53.91 45.11-25.23 0-51.81-9-57.35-35.74l35.56-11.09c.76 6.88 9.55 12 19.69 12 7.45 0 13-2.87 13-8 0-6.69-8.22-7.07-21.6-10.32C22.17 79.52 4.21 70.92 4.21 43.39 4.21 17.21 27.34 0 56.77 0c23.52 0 44.93 11.66 49.71 35.17l-35.37 8.61c-1.53-5.36-6.69-9-14-9-7.65 0-11.66 3.06-11.66 7.65 0 6.5 9.94 7.07 20.26 9.94 32.74 8.99 45.55 18.55 45.55 41.11M160 118a20.55 20.55 0 1 1-20.64-20.46A20.55 20.55 0 0 1 160 118"
        style="fill:var(--chat-text-secondary)" />
</svg>