
<?xml version="1.0" encoding="utf-8"?>
<!-- Generator: Adobe Illustrator 25.3.1, SVG Export Plug-In . SVG Version: 6.00 Build 0)  -->
<svg version="1.1" id="Layer_1" xmlns="http://www.w3.org/2000/svg" xmlns:xlink="http://www.w3.org/1999/xlink" x="0px" y="0px"
	 viewBox="0 0 387.3 339.6" style="enable-background:new 0 0 387.3 339.6;" xml:space="preserve">
<style type="text/css">
	.st0{fill:#221F20;}
</style>
<path class="st0" d="M192.8,318.2h85.5v16.6l64.2-36.5l-64.2-36.5v16.6h-85.5c-0.1,0-0.3,0-0.4,0c-30.7,0-59.5-11.9-81.3-33.5
	c-21.9-21.7-34-50.6-34.1-81.5c-0.1-26.4,8.7-51.5,24.9-72H54.6c-11.5,22-17.5,46.7-17.4,71.5C37.2,248.6,107,318.2,192.8,318.2z"/>
<path class="st0" d="M192.8,7.7H59.1l26.1,19.9L59.1,47.5h133.7c0.1,0,0.3,0,0.4,0c63.4,0,115.1,51.5,115.3,115
	c0.1,26.7-9.3,53-26.2,73.6h47.8c12-22.4,18.4-47.6,18.3-73.1C348.5,77.3,278.6,7.7,192.8,7.7z"/>
<polygon class="st0" points="43.7,52.7 43.7,52.7 43.7,52.7 "/>
<path class="st0" d="M231.2,180.4c6-3.4,11-8.1,14.8-14.2c4.9-7.7,7.4-16.6,7.4-26.4v-0.2c0-9.9-2.2-18.6-6.5-25.7
	c-4.3-7.3-10.6-12.9-18.7-16.8c-7.8-3.8-17.3-5.7-28.1-5.7h-60.6V236h38.7v-48.4h17.5l24.9,48.4H261L231.2,180.4z M178.2,124.1h18.5
	c5.5,0,9.7,1.4,12.8,4.2c3,2.7,4.4,6.5,4.4,11.4v0.2c0,5.1-1.4,8.8-4.2,11.5c-3,2.8-7.1,4.1-12.7,4.1h-18.9V124.1z"/>
</svg>
