<?xml version="1.0" encoding="utf-8"?>
<!-- Generator: Adobe Illustrator 25.3.1, SVG Export Plug-In . SVG Version: 6.00 Build 0)  -->
<svg version="1.1" id="Layer_1" xmlns="http://www.w3.org/2000/svg" xmlns:xlink="http://www.w3.org/1999/xlink" x="0px" y="0px"
	 viewBox="0 0 403.8 403.8" style="enable-background:new 0 0 403.8 403.8;" xml:space="preserve">
<style type="text/css">
	.st0{fill:#FFFFFF;}
</style>
<path class="st0" d="M201.9,11.5C96.7,11.5,11.5,96.7,11.5,201.9s85.3,190.4,190.4,190.4S392.3,307,392.3,201.9
	S307.1,11.5,201.9,11.5z M203.5,62.2c14.6,0,26.5,11.8,26.5,26.5s-11.8,26.5-26.5,26.5S177,103.3,177,88.7S188.9,62.2,203.5,62.2z
	 M220.8,145.3c0,9.5-7.7,17.3-17.3,17.3s-17.3-7.7-17.3-17.3s7.7-17.3,17.3-17.3S220.8,135.8,220.8,145.3z M327.7,159.7
	c0,2.5-1.4,4.9-3.6,6.2l-112.8,65.2c-4.8,2.8-10.8,2.8-15.5,0l-83.5-48.2c-1-0.6-2.3,0.1-2.3,1.2v15.3c0,0.5,0.3,1,0.7,1.2l85,49.1
	c4.8,2.8,10.8,2.8,15.5,0l109.6-63.3c3-1.7,6.9,0.3,6.9,3.7v20v6.8v18.7v17.8v12.5c0,2.5-1.4,4.9-3.6,6.2L211.3,337
	c-4.8,2.8-10.8,2.8-15.5,0L83,271.8c-2.3-1.3-3.6-3.6-3.6-6.2v-26.5c0-1.6,1.9-2.7,3.4-1.8l113,65.1c4.8,2.8,10.8,2.8,15.5,0
	l85-49.1c0.4-0.3,0.7-0.7,0.7-1.2v-15.3c0-1.1-1.2-1.8-2.3-1.2l-83.5,48.2c-4.8,2.8-10.8,2.8-15.5,0L83.2,219c-2.4-1.4-4-4-4-6.8
	v-8.1v-21.9v-18.7v-2.8v-31.6l59.2-34.2c12-6.9,27.3,1.4,27.3,14.8v0.4c0,2-1.1,3.9-2.9,4.9L109,146.4l86.7,50.1
	c4.8,2.8,10.8,2.8,15.5,0l86.7-50.1l-53.8-31.1c-1.8-1-2.9-2.9-2.9-4.9V110c0-13.4,15.3-21.8,27.3-14.8l59.2,34.2l0.1,21.8v8.5
	H327.7z"/>
</svg>
