<svg version="1.0" xmlns="http://www.w3.org/2000/svg" viewBox="0 0 14 14" style="enable-background:new 0 0 13 13" xml:space="preserve" width="13" height="13"><path d="M11.738 7c0 2.692 -2.154 4.738 -4.738 4.738S2.262 9.692 2.262 7 4.416 2.262 7 2.262 11.738 4.308 11.738 7z" style="fill:none"/><path d="M7 8.077c-0.646 0 -1.077 -0.538 -1.077 -1.077S6.354 5.923 7 5.923 8.077 6.461 8.077 7 7.646 8.077 7 8.077zm3.446 0C9.8 8.077 9.369 7.539 9.369 7s0.538 -1.077 1.077 -1.077c0.646 0 1.077 0.538 1.077 1.077s-0.538 1.077 -1.077 1.077zm-6.892 0c-0.646 0 -1.077 -0.538 -1.077 -1.077s0.431 -1.077 1.077 -1.077S4.631 6.461 4.631 7 4.2 8.077 3.554 8.077z" style="fill:#000"/></svg>