<?xml version="1.0" encoding="utf-8"?>
<!-- Generator: Adobe Illustrator 25.3.1, SVG Export Plug-In . SVG Version: 6.00 Build 0)  -->
<svg version="1.1" id="Layer_1" xmlns="http://www.w3.org/2000/svg" xmlns:xlink="http://www.w3.org/1999/xlink" x="0px" y="0px"
	 viewBox="0 0 482 517" style="enable-background:new 0 0 482 517;" xml:space="preserve">
<style type="text/css">
	.st0{fill:#FFFFFF;}
	.st1{fill:#F8E05B;}
</style>
<circle class="st0" cx="241" cy="258.5" r="233"/>
<g>
	<g transform="translate(0.000000,517.000000) scale(0.100000,-0.100000)">
		<path d="M2832.8,3819.6c-121.4-27.8-219.1-114-244.9-216.4c-7.5-29.9-6.8-33.9,3.4-42.1c14.9-10.9,37.3-3.4,99,31.9
			c69.2,39.3,125.5,54.3,227.3,58.3c132.3,6.1,204.2-10.2,295.8-65.1c94.3-56.3,117.4-36,71.2,63.8c-35.3,78-90.9,124.8-184.5,156.7
			C3033,3829.8,2904.1,3835.9,2832.8,3819.6z"/>
	</g>
	<ellipse cx="205.3" cy="199" rx="20.8" ry="37.2"/>
	<ellipse cx="292.5" cy="199" rx="20.8" ry="37.2"/>
	<path d="M186.6,105.1c-11.9,3.8-20.8,13.2-22.5,23.7c-0.5,3.1-0.4,3.5,0.7,4.1c1.6,0.9,3.7,0,9.6-4c6.6-4.5,12-6.5,22.1-7.8
		c13.1-1.8,20.4-0.7,30.1,3.9c9.9,4.8,12,2.6,6.5-7c-4.2-7.5-10.1-11.7-19.7-14C206.4,102.3,193.5,102.8,186.6,105.1z"/>
	<g>
		<path d="M247.7,391.3c-32.4,0-58.8-6.3-78.4-12c-16-4.7-35.7-13.9-38.7-31.5c0-0.1-0.1-0.5-0.1-0.7c-0.8-9.5,0-38.2,0-38.2h234.2
			V347l-0.1,0.6c-2.3,14.5-15.3,25.2-38.7,31.9C306.9,385.1,280.5,391.3,247.7,391.3z M143.6,346c0.5,5.6,6.7,13.2,26.2,19.7
			c18.7,6.2,45.7,12.9,78,12.9c33.2,0,59.5-6.4,78-12.4c15.8-5.1,24.6-11.9,26.1-20v-22.4H143.6C143.6,323.6,143,340.4,143.6,346z"
			/>
	</g>
	<path class="st0" d="M143.6,346c0.5,5.6,6.7,13.2,26.2,19.7c18.7,6.2,45.7,12.9,78,12.9c33.2,0,59.5-6.4,78-12.4
		c15.8-5.1,24.6-11.9,26.1-20v-22.4H143.6C143.6,323.6,143,340.4,143.6,346z"/>
	<path d="M376.9,351L323,338.7c-0.7-0.1-1.3-0.7-1.5-1.4l-14.7-52.7c-0.6-1.8-3.3-1.8-3.9,0l-14.7,52.7c-0.2,0.7-0.7,1.2-1.5,1.4
		L232.8,351c-2.1,0.5-2.1,3.3,0,3.8l53.9,12.3c0.7,0.1,1.3,0.7,1.5,1.4l14.7,52.7c0.6,1.8,3.3,1.8,3.9,0l14.7-52.7
		c0.2-0.7,0.7-1.2,1.5-1.4l53.9-12.3C379,354.3,379,351.5,376.9,351z"/>
	<path class="st1" d="M338,351.9l-24.7-6c-0.3-0.1-0.6-0.3-0.7-0.7l-6.8-25.7c-0.3-0.9-1.6-0.9-1.8,0l-6.8,25.7
		c-0.1,0.3-0.3,0.5-0.7,0.7l-24.7,6c-0.9,0.2-0.9,1.6,0,1.8l24.7,6c0.3,0.1,0.6,0.3,0.7,0.7l6.8,25.7c0.3,0.9,1.6,0.9,1.8,0
		l6.8-25.7c0.1-0.3,0.3-0.5,0.7-0.7l24.7-6C338.9,353.6,338.9,352.2,338,351.9z"/>
</g>
</svg>
