<svg fill="none" width="16" height="11" viewBox="0 0 16 11">
  <path fill="currentColor" d="M11.071.653a.46.46 0 0 0-.304-.102.5.5 0 0 0-.381.178l-6.19 7.636-2.405-2.272a.46.46 0 0 0-.336-.146.47.47 0 0 0-.343.146l-.311.31a.45.45 0 0 0-.14.337q0 .204.14.343l2.996 2.996a.72.72 0 0 0 .501.203.7.7 0 0 0 .546-.266l6.646-8.417a.5.5 0 0 0 .108-.299.44.44 0 0 0-.19-.374zm-2.45 7.674a15 15 0 0 1-.546-.355.43.43 0 0 0-.317-.12.46.46 0 0 0-.362.158l-.292.33a.48.48 0 0 0 .013.666l1.079 1.073q.203.203.495.203a.7.7 0 0 0 .552-.267l6.62-8.391a.45.45 0 0 0 .109-.298.49.49 0 0 0-.178-.375l-.355-.273a.487.487 0 0 0-.673.076z"></path>
</svg>
