<svg version="1.1" id="prefix__Layer_1" xmlns="http://www.w3.org/2000/svg" x="0" y="0" viewBox="0 0 258.8 258.8" xml:space="preserve"><style>.prefix__st1{opacity:.9;fill:#fff;enable-background:new}</style><path d="M-.4-.4h258.8v258.8H-.4V-.4z" opacity=".38" fill="#b3c3d1"/><path class="prefix__st1" d="M142.4 121c7.2 7.2 7.2 18.9 0 26.1s-18.9 7.2-26.1 0-7.2-18.9 0-26.1c7.3-7.2 18.9-7.2 26.1 0"/><path class="prefix__st1" d="M184.7 83.3H172l-9.2-18.4H96l-9.2 18.5H74.1c-10.1 0-18.4 8.3-18.4 18.4v73.7c0 10.2 8.3 18.4 18.4 18.4h110.7c10.2 0 18.4-8.3 18.4-18.4v-73.8c0-10.1-8.3-18.4-18.5-18.4zm-55.3 87.6c-20.3 0-36.9-16.5-36.9-36.9 0-20.3 16.5-36.9 36.9-36.9s36.9 16.5 36.9 36.9-16.6 36.9-36.9 36.9z"/></svg>