<?xml version="1.0" encoding="utf-8"?>
<!-- Generator: Adobe Illustrator 25.3.1, SVG Export Plug-In . SVG Version: 6.00 Build 0)  -->
<svg version="1.1" id="Layer_1" xmlns="http://www.w3.org/2000/svg" xmlns:xlink="http://www.w3.org/1999/xlink" x="0px" y="0px"
	 viewBox="0 0 512 512" style="enable-background:new 0 0 512 512;" xml:space="preserve">
<style type="text/css">
	.st0{fill:#FC481F;}
</style>
<g>
	<path class="st0" d="M252.7,188.4c-20.9,0-44.1,16.9-44.1,66.8c0,39.6,17.5,61.7,44.1,61.7c18.7,0,42.5-11.9,42.5-44.7v-39.6
		C295.1,201.5,271.9,188.4,252.7,188.4z"/>
	<path class="st0" d="M435.2,0H76.8C34.4,0,0,34.4,0,76.8v358.4C0,477.6,34.4,512,76.8,512h358.4c42.4,0,76.8-34.4,76.8-76.8V76.8
		C512,34.4,477.6,0,435.2,0z M367.5,374.5c-39.6,0-65.6-15.8-69-50.9c-10.2,39-37.3,50.9-74.1,50.9c-49.2,0-90.5-37.9-90.5-114.3
		c0-76.9,36.2-124.5,101.3-124.5c34.5,0,56,13.6,65.6,35.1l16.4-30h47.5v166.3l0,0c0,19.8,5.6,27.7,20.4,27.7
		c32.8,0,53.7-41.8,53.7-111.4c0-106.4-77.5-157.3-174.3-157.3C165,66.2,74.4,133,74.4,259.1c0,120.5,79.2,186.1,200.8,186.1
		c41.3,0,69-4.5,111.4-18.7l9.1,37.9c-41.9,13.6-86.6,17.5-121.1,17.5c-159.5,0-245-87.7-245-222.9c0-136.3,99-229.1,235.4-229.1
		c142,0,217.2,84.9,217.2,188.9C482.3,307.2,454.6,374.5,367.5,374.5z"/>
</g>
</svg>
