<?xml version="1.0" encoding="utf-8"?>
<!-- Generator: Adobe Illustrator 25.3.1, SVG Export Plug-In . SVG Version: 6.00 Build 0)  -->
<svg version="1.1" id="Layer_1" xmlns="http://www.w3.org/2000/svg" xmlns:xlink="http://www.w3.org/1999/xlink" x="0px" y="0px"
	 viewBox="0 0 182 182" style="enable-background:new 0 0 182 182;" xml:space="preserve">
<style type="text/css">
	.st0{fill:#0082FB;}
	.st1{fill:#FFFFFF;}
</style>
<g>
	<path class="st0" d="M160.8,0H21.2C9.5,0,0,9.5,0,21.2v139.6C0,172.5,9.5,182,21.2,182h139.6c11.7,0,21.2-9.5,21.2-21.2V21.2
		C182,9.5,172.5,0,160.8,0z"/>
</g>
<path class="st1" d="M142.3,143c-15.1,0-23.4-8.5-38.4-33.5l-7.7-12.9c-1.8-3.1-3.6-5.9-5.2-8.6c-4.7,8.3-11.5,20.3-11.5,20.3
	C63.2,137,54,143,41.2,143c-17.8,0-28.4-13.8-28.4-35.8c0-35.1,19.5-68.2,45-68.2c12.5,0,22.9,6.1,35.4,21.9
	c9.1-12.3,19.1-21.9,31.9-21.9c24.2,0,44.2,30.8,44.2,67.6C169.3,129,159.7,143,142.3,143z"/>
<path class="st0" d="M124,52.4c-8.1,0-14.9,6.4-23.2,19.1c2.3,3.4,4.7,7.1,7.2,11.2l9.2,15.3c14.3,23.1,18,28.1,25.5,28.1
	c7.9,0,11.7-6.7,11.7-18.4C154.4,77.2,140.9,52.4,124,52.4z"/>
<path class="st0" d="M57.6,56c-15.1,0-27.8,26-27.8,51.5c0,11.9,4.5,18.6,12.1,18.6c7.4,0,12-4.7,25.2-25.5c0,0,6-9.6,16-24.9
	C72.6,60.7,65.8,56,57.6,56z"/>
</svg>
