<?xml version="1.0" encoding="utf-8"?>
<!-- Generator: Adobe Illustrator 25.3.1, SVG Export Plug-In . SVG Version: 6.00 Build 0)  -->
<svg version="1.1"
	 id="svg8" xmlns:cc="http://creativecommons.org/ns#" xmlns:dc="http://purl.org/dc/elements/1.1/" xmlns:inkscape="http://www.inkscape.org/namespaces/inkscape" xmlns:rdf="http://www.w3.org/1999/02/22-rdf-syntax-ns#" xmlns:sodipodi="http://sodipodi.sourceforge.net/DTD/sodipodi-0.dtd" xmlns:svg="http://www.w3.org/2000/svg"
	 xmlns="http://www.w3.org/2000/svg" xmlns:xlink="http://www.w3.org/1999/xlink" x="0px" y="0px" viewBox="0 0 512 512"
	 style="enable-background:new 0 0 512 512;" xml:space="preserve">
<style type="text/css">
	.st0{fill:#37AFE2;}
	.st1{fill:#FFFFFF;}
	.st2{fill:#7f7d7d;}
	.st3{fill:#E6E6E6;}
</style>
<g id="layer1">
	<circle id="path848" class="st0" cx="256" cy="256" r="254"/>
	<g id="g921" transform="matrix(1.1802949,0,0,1.1802949,-11.952377,-12.258353)">
		<path id="path898" class="st1" d="M307.7,344.8c0,0,56.9-227.3,44.5-233.6c-12.4-6.3-281,103.2-281,103.2
			c-28.2,13.3,71.4,37.8,71.4,37.8l164.9-102.7L181.8,270.3C181.8,270.3,298.2,380.5,307.7,344.8L307.7,344.8z"/>
		<path id="path900" class="st2" d="M181.8,270.3c0,0-11.6,65.9-5.3,72.6l42-40.1C197.9,285.5,181.8,270.3,181.8,270.3L181.8,270.3z
			"/>
		<path id="path902" class="st3" d="M307.6,149.6L142.7,252.3c0,0,18.7,81.4,33.8,90.6c-6.3-6.7,5.3-72.6,5.3-72.6L307.6,149.6z"/>
	</g>
</g>
</svg>
