<?xml version="1.0" encoding="utf-8"?>
<!-- Generator: Adobe Illustrator 25.3.1, SVG Export Plug-In . SVG Version: 6.00 Build 0)  -->
<svg version="1.1" id="Layer_1" xmlns="http://www.w3.org/2000/svg" xmlns:xlink="http://www.w3.org/1999/xlink" x="0px" y="0px"
	 viewBox="0 0 52 52" style="enable-background:new 0 0 52 52;" xml:space="preserve">
<style type="text/css">
	.st0{fill:#FFFFFF;}
</style>
<path class="st0" d="M26,4C12.7,4,2.1,13.8,2.1,25.9c0,3.8,1.1,7.4,2.9,10.6c0.3,0.5,0.4,1.1,0.2,1.7l-3.1,8.5
	c-0.3,0.8,0.5,1.5,1.3,1.3l8.6-3.3c0.5-0.2,1.1-0.1,1.7,0.2c3.6,2,7.9,3.2,12.5,3.2C39.3,48,50,38.2,50,26.1C49.9,13.8,39.2,4,26,4z
	 M9.4,22.9c0.2,0.2,0.6,0.4,1.1,0.6c0.5,0.1,1,0.4,1.6,0.5c0.6,0.2,1.2,0.5,1.7,0.7c0.6,0.4,1,0.9,1.3,1.3c0.4,0.6,0.6,1.3,0.6,2.3
	c0.1,0.9,0,1.6-0.4,2.2c-0.4,0.6-0.7,1.2-1.2,1.6c-0.5,0.4-1.1,0.7-1.8,1c-0.6,0.2-1.3,0.2-2.1,0.2c-1,0-1.8-0.1-2.7-0.5
	c-0.9-0.4-1.7-0.9-2.3-1.6L4.9,31c-0.1-0.1,0-0.4,0.2-0.6l2-1.8c0.2-0.2,0.5-0.2,0.6-0.1C7.9,28.6,8,28.8,8,28.8
	c0.2,0.4,0.6,0.6,1,0.9c0.6,0.4,1.2,0.4,2,0.2c0.2,0,0.4-0.1,0.6-0.2c0.1-0.1,0.2-0.2,0.4-0.4c0.1-0.1,0.1-0.4,0.1-0.5
	c0-0.5-0.1-0.6-0.2-0.7c-0.2-0.2-0.6-0.5-1.1-0.6s-1-0.4-1.6-0.5c-0.6-0.2-1.2-0.5-1.7-0.7c-0.6-0.4-1-0.9-1.3-1.3
	c-0.4-0.6-0.6-1.3-0.6-2.3c0-0.9,0.1-1.6,0.5-2.2c0.4-0.6,0.7-1.1,1.3-1.5c0.5-0.4,1.1-0.7,1.8-0.9c1.5-0.4,2.9-0.4,4.4,0.1
	c0.7,0.2,1.5,0.7,1.8,1l0.4,0.2c0.2,0.1,0.1,0.5-0.1,0.7L13.8,22c-0.2,0.2-0.6,0.2-0.9,0c-0.2-0.1-0.4-0.4-0.5-0.4
	c-0.6-0.4-1.5-0.5-2.2-0.4c-0.2,0-0.4,0.1-0.5,0.2c-0.1,0.1-0.2,0.2-0.4,0.4c-0.1,0.1-0.1,0.2-0.1,0.5C9.2,22.7,9.3,22.8,9.4,22.9z
	 M33.3,33.4H32c-0.7,0-1.1-0.5-1.1-1.2V25c0-0.7-1-0.9-1.2-0.2l-2.1,5.5C27.5,30.8,27,31,26.5,31h-0.9c-0.5,0-1-0.4-1.1-0.7
	l-2.2-5.5c-0.2-0.6-1.2-0.5-1.2,0.2v7.2c0,0.7-0.6,1.2-1.3,1.2h-1.2c-0.7,0-1.1-0.5-1.1-1.2V18.8c0-0.7,0.5-1.2,1.1-1.2h3.2
	c0.5,0,1,0.4,1.1,0.7l2.4,6.4c0.2,0.5,1,0.5,1.1,0l2.4-6.4c0.1-0.5,0.6-0.7,1.1-0.7h3.3c0.7,0,1.3,0.5,1.3,1.2v13.4h0.1
	C34.6,32.9,34,33.4,33.3,33.4z M45.1,32.2c-0.5,0.4-1.1,0.7-1.8,1c-0.7,0.2-1.3,0.2-2.1,0.2c-1,0-1.8-0.1-2.7-0.5
	c-0.9-0.4-1.7-0.9-2.3-1.6L36,31.1c-0.1-0.1,0-0.4,0.2-0.6l2-1.8c0.2-0.2,0.5-0.2,0.6-0.1C38.9,28.7,39,29,39,29
	c0.2,0.4,0.6,0.6,1,0.9c0.6,0.4,1.3,0.4,2,0.2c0.2-0.1,0.5-0.1,0.6-0.2c0.1-0.1,0.2-0.2,0.4-0.4c0-0.2,0-0.5,0-0.6
	c0-0.5-0.1-0.6-0.2-0.7c-0.2-0.2-0.6-0.5-1.1-0.6c-0.5-0.1-1-0.4-1.6-0.5c-0.6-0.2-1.2-0.5-1.7-0.7c-0.6-0.4-1.1-0.9-1.5-1.3
	c-0.4-0.6-0.6-1.3-0.6-2.3c0-0.9,0.1-1.6,0.5-2.2c0.4-0.6,0.7-1.1,1.3-1.5c0.5-0.4,1.2-0.7,1.8-0.9c1.5-0.4,2.9-0.4,4.4,0.1
	c0.7,0.2,1.5,0.7,1.8,1.1l0.4,0.4c0.2,0.1,0.1,0.5-0.1,0.7l-1.8,1.8c-0.2,0.2-0.6,0.2-0.9,0c-0.2-0.1-0.4-0.4-0.5-0.4
	c-0.6-0.4-1.5-0.5-2.2-0.4c-0.2,0-0.4,0.1-0.5,0.2c-0.1,0.1-0.2,0.2-0.4,0.4C40,22.3,40,22.6,40,22.7c0,0.4,0.1,0.5,0.2,0.6
	c0.2,0.2,0.6,0.4,1.1,0.6c0.5,0.1,1,0.4,1.6,0.5c0.6,0.2,1.2,0.5,1.7,0.7c0.6,0.4,1,0.9,1.5,1.3c0.4,0.6,0.6,1.3,0.6,2.3
	c0.2,0.5,0.1,1.3-0.3,1.9C46,31.2,45.7,31.8,45.1,32.2z"/>
</svg>
