<?xml version="1.0" encoding="utf-8"?>
<!-- Generator: Adobe Illustrator 25.3.1, SVG Export Plug-In . SVG Version: 6.00 Build 0)  -->
<svg version="1.1" id="Layer_1" xmlns="http://www.w3.org/2000/svg" xmlns:xlink="http://www.w3.org/1999/xlink" x="0px" y="0px"
	 viewBox="0 0 512 512" style="enable-background:new 0 0 512 512;" xml:space="preserve">
<style type="text/css">
	.st0{fill:#2F8DC4;}
	.st1{fill:#4797BF;}
	.st2{fill:#155F7C;}
	.st3{fill:#49A8CE;}
</style>
<g>
	<path class="st0" d="M256,9.2C119.7,9.2,9.2,119.7,9.2,256S119.7,502.8,256,502.8S502.8,392.3,502.8,256S392.3,9.2,256,9.2z
		 M256,462.1c-113.8,0-206.1-92.3-206.1-206.1S142.2,49.9,256,49.9S462.1,142.2,462.1,256S369.8,462.1,256,462.1z"/>
	<path class="st1" d="M223.8,351.8c-7.7,0-6.4-2.9-9.1-10.3l-22.8-74.9l175.3-104"/>
	<path class="st2" d="M223.8,351.8c6,0,8.6-2.7,12-6l31.9-31l-39.8-24"/>
	<path class="st3" d="M227.9,290.9l96.3,71.2c11,6.1,18.9,2.9,21.7-10.2l39.2-184.8c4-16.1-6.1-23.4-16.7-18.6l-230.2,88.8
		c-15.7,6.3-15.6,15.1-2.9,19l59.1,18.4l136.8-86.3c6.5-3.9,12.4-1.8,7.5,2.5"/>
</g>
</svg>
