<svg xmlns="http://www.w3.org/2000/svg" viewBox="0 0 60 60" xml:space="preserve"><path d="M30 59.5c16.3 0 29.5-13.2 29.5-29.5S46.3.5 30 .5.5 13.7.5 30 13.7 59.5 30 59.5" style="fill-rule:evenodd;clip-rule:evenodd;fill:#1a1d22"/><path d="M30 60C13.5 60 0 46.5 0 30S13.5 0 30 0s30 13.5 30 30-13.5 30-30 30m0-57.7C14.7 2.3 2.3 14.7 2.3 30S14.7 57.7 30 57.7 57.7 45.3 57.7 30 45.3 2.3 30 2.3" style="fill:#fff"/><path d="M47 40.3c3.4-6.4 1-14.3-5.4-17.7-1.4-.8-3-1.3-4.6-1.5-2.8-6.7-10.5-9.7-17.2-6.9s-9.7 10.5-6.9 17.2c.1.4.3.7.5 1l-1 3.5c-.4 1.2.4 2.5 1.6 2.8.4.1.8.1 1.3 0l3.5-1c1.4.8 3 1.3 4.6 1.5 2.8 6.7 10.6 9.7 17.2 6.9.4-.1.7-.3 1-.5l3.5 1c1.2.4 2.5-.4 2.8-1.6.1-.4.1-.8 0-1.3zm-28-5.2c-.1 0-.2 0-.4.1l-3.5 1 1-3.5c.1-.4.1-.7-.1-1-3-5-1.3-11.4 3.7-14.4S31.1 16 34.1 21s1.3 11.4-3.7 14.4c-3.3 2-7.4 2-10.7 0-.3-.3-.5-.3-.7-.3m25.5 4.3c-.2.3-.2.7-.1 1l1 3.5-3.5-1c-.4-.1-.7-.1-1 .1-5 3-11.4 1.3-14.4-3.7 0-.1-.1-.1-.1-.2 7.2-.7 12.4-7.2 11.7-14.4 0-.3-.1-.7-.1-1 5.6 1.3 9.1 7 7.8 12.6-.4 1.2-.8 2.2-1.3 3.1" style="fill:white"/></svg>