<?xml version="1.0" encoding="utf-8"?>
<!-- Generator: Adobe Illustrator 25.3.1, SVG Export Plug-In . SVG Version: 6.00 Build 0)  -->
<svg version="1.1" id="Layer_1" xmlns="http://www.w3.org/2000/svg" xmlns:xlink="http://www.w3.org/1999/xlink" x="0px" y="0px"
	 viewBox="0 0 20 20" style="enable-background:new 0 0 20 20;" xml:space="preserve">
<style type="text/css">
	.st0{fill:#FFFFFF;}
</style>
<path class="st0" d="M12.8,4.4L11,6.1C8.9,5.6,6.7,6.8,6.1,9C6,9.6,6,10.4,6.1,11l-2.8,2.8c-1.3-1-2.4-2.3-3.2-3.8
	C2.6,5.4,7.8,3,12.8,4.4L12.8,4.4z M16.6,6.2c1.3,1,2.4,2.3,3.2,3.8c-2.4,4.6-7.6,7-12.6,5.6L9,13.9c2.1,0.6,4.3-0.7,4.9-2.8
	c0.2-0.7,0.2-1.4,0-2.1L16.6,6.2L16.6,6.2z M16.4,2.2l1.4,1.4L3.6,17.8l-1.4-1.4L16.4,2.2z"/>
</svg>
