<?xml version="1.0" encoding="utf-8"?>
<!-- Generator: Adobe Illustrator 25.3.1, SVG Export Plug-In . SVG Version: 6.00 Build 0)  -->
<svg version="1.1" id="Layer_1" xmlns="http://www.w3.org/2000/svg" xmlns:xlink="http://www.w3.org/1999/xlink" x="0px" y="0px"
	 viewBox="0 0 512 512" style="enable-background:new 0 0 512 512;" xml:space="preserve">
<style type="text/css">
	.st0{fill:#11AA44;}
	.st1{fill-rule:evenodd;clip-rule:evenodd;fill:#11AA44;}
</style>
<g>
	<path class="st0" d="M256,9.2C119.7,9.2,9.2,119.7,9.2,256S119.7,502.8,256,502.8S502.8,392.3,502.8,256S392.3,9.2,256,9.2z
		 M256,462.1c-113.8,0-206.1-92.3-206.1-206.1S142.2,49.9,256,49.9S462.1,142.2,462.1,256S369.8,462.1,256,462.1z"/>
</g>
<path class="st1" d="M374.5,308.2c-6.4-3.2-38.9-19-44.5-21.2c-6.2-2.1-10.2-3.2-14.5,3.2c-4.3,6.4-16.9,21.2-20.6,25.7
	c-3.8,4.3-7.5,4.8-14.2,1.6c-6.4-3.2-27.6-10.2-52.5-32.4c-19.3-17.4-32.4-38.9-36.2-45.3c-3.8-6.4-0.5-10.2,2.7-13.4
	c2.9-2.9,6.4-7.5,9.9-11.5c3.2-4,4.3-6.4,6.4-10.7c2.1-4.3,1.1-8-0.5-11.3s-14.5-35.4-20.1-48.5c-5.4-12.9-10.5-11-14.5-11.3
	c-3.8-0.3-8-0.3-12.6-0.3c-4.3,0-11.3,1.9-17.4,8c-6.2,6.4-22.8,22.5-22.8,54.7s23.3,63.3,26.8,67.8c3.2,4.3,46.1,70.5,111.8,98.7
	c15.5,6.7,27.6,10.7,37.3,13.9c15.5,5.1,30,4.3,41.3,2.4c12.6-1.9,38.9-15.8,44-30.8c5.6-15.3,5.6-28.4,3.8-31.1
	C385.7,313,381.2,311.7,374.5,308.2z"/>
</svg>
