<svg xmlns="http://www.w3.org/2000/svg" viewBox="0 0 60 60" xml:space="preserve"><path d="M30 59.5c16.3 0 29.5-13.2 29.5-29.5S46.3.5 30 .5.5 13.7.5 30 13.7 59.5 30 59.5" style="fill-rule:evenodd;clip-rule:evenodd;fill:#f6f7f9"/><path d="M30 60C13.5 60 0 46.5 0 30S13.5 0 30 0s30 13.5 30 30-13.5 30-30 30m0-57.7C14.7 2.3 2.3 14.7 2.3 30S14.7 57.7 30 57.7 57.7 45.3 57.7 30 45.3 2.3 30 2.3" style="fill:#fcfcfc"/><path d="M55.2 30c0 13.9-11.3 25.2-25.2 25.2S4.9 43.9 4.9 30 16.2 4.9 30.1 4.9 55.2 16.1 55.2 30M45 36.6c-.2-.4-.7-.5-1.5-.9-.7-.4-4.2-2-4.9-2.2s-1.1-.4-1.6.4c-.5.7-1.8 2.4-2.2 2.7-.4.5-.9.5-1.6.2-.7-.4-3.1-1.1-5.9-3.5-2.2-1.8-3.7-4.2-4-4.9-.4-.7 0-1.1.4-1.5s.7-.9 1.1-1.3.5-.7.7-1.3c.2-.5.2-.9 0-1.3s-1.6-3.8-2.2-5.3c-.5-1.5-1.3-1.3-1.6-1.3h-1.5c-.5 0-1.3.2-1.8.9-.7.7-2.6 2.4-2.6 6 0 3.5 2.6 7 2.9 7.3.4.5 4.9 7.9 12.3 10.8s7.3 1.8 8.6 1.8c1.3-.2 4.2-1.6 4.9-3.5.7-1.4.7-2.7.5-3.1M58.2 30c0 15.6-12.6 28.2-28.2 28.2S1.9 45.6 1.9 30 14.5 1.9 30.1 1.9 58.2 14.5 58.2 30" style="fill-rule:evenodd;clip-rule:evenodd;fill:#aab5bb"/></svg>