<svg xmlns="http://www.w3.org/2000/svg" viewBox="0 0 60 60" xml:space="preserve"><path d="M30 59.5c16.3 0 29.5-13.2 29.5-29.5S46.3.5 30 .5.5 13.7.5 30 13.7 59.5 30 59.5" style="fill-rule:evenodd;clip-rule:evenodd;fill:#fff"/><path d="M30 60C13.5 60 0 46.5 0 30S13.5 0 30 0s30 13.5 30 30-13.5 30-30 30m0-57.7C14.7 2.3 2.3 14.7 2.3 30S14.7 57.7 30 57.7 57.7 45.3 57.7 30 45.3 2.3 30 2.3" style="fill:#fcfcfc"/><path d="M51.8 30c0 12-9.8 21.8-21.8 21.8S8.3 42.1 8.3 30 18 8.3 30.1 8.3 51.8 18 51.8 30m-10.1 5.2c-.1-.3-.6-.4-1.1-.7-.6-.3-3.3-1.6-3.8-1.7-.6-.1-.9-.3-1.3.3s-1.4 1.8-1.7 2.1c-.3.4-.7.4-1.3.1s-2.4-.9-4.5-2.7c-1.7-1.4-2.8-3.3-3.1-3.8-.3-.6 0-.9.3-1.1.3-.3.6-.7.9-1s.4-.6.6-1c.1-.4.1-.7 0-1s-1.3-3-1.7-4.1-1-1-1.3-1h-1.1c-.4 0-1 .1-1.4.7-.6.6-2 1.8-2 4.7 0 2.7 2 5.4 2.3 5.7.3.4 3.8 6.1 9.5 8.4s5.7 1.4 6.7 1.4c1-.1 3.3-1.3 3.8-2.7.3-1.4.3-2.4.2-2.6M55.6 30c0 14.1-11.4 25.5-25.5 25.5S4.5 44.1 4.5 30 16 4.5 30.1 4.5 55.6 15.9 55.6 30" style="fill-rule:evenodd;clip-rule:evenodd;fill:#aab5bb"/></svg>