<?xml version="1.0" encoding="utf-8"?>
<!-- Svg Vector Icons : http://www.onlinewebfonts.com/icon -->
<!DOCTYPE svg PUBLIC "-//W3C//DTD SVG 1.1//EN" "http://www.w3.org/Graphics/SVG/1.1/DTD/svg11.dtd">
<svg version="1.1" xmlns="http://www.w3.org/2000/svg" xmlns:xlink="http://www.w3.org/1999/xlink" x="0px" y="0px" viewBox="0 0 256 256" enable-background="new 0 0 256 256" xml:space="preserve">
<metadata> Svg Vector Icons : http://www.onlinewebfonts.com/icon </metadata>
<g><g><path fill="#8127ff" d="M120.5,61.9h17c1.6,0,2.8-1.3,2.8-2.8c0-1.6-1.3-2.8-2.8-2.8h-17c-1.6,0-2.8,1.3-2.8,2.8C117.7,60.7,119,61.9,120.5,61.9z"/><path fill="#8127ff" d="M129,192.2c-4.7,0-8.5,3.8-8.5,8.5c0,4.7,3.8,8.5,8.5,8.5c4.7,0,8.5-3.8,8.5-8.5C137.5,196,133.7,192.2,129,192.2z"/><path fill="#8127ff" d="M128,10C62.8,10,10,62.8,10,128c0,65.2,52.8,118,118,118c65.2,0,118-52.8,118-118C246,62.8,193.2,10,128,10z M172.2,200.7c0,7.8-6.4,14.4-14.1,14.4H97.9c-7.8,0-14.1-6.6-14.1-14.4V59.4c0-7.8,6.4-14.1,14.1-14.1h60.2c7.8,0,14.1,6.4,14.1,14.1V200.7L172.2,200.7z"/><path fill="#8127ff" d="M90.6,72.4h74.8v112.2H90.6V72.4L90.6,72.4z"/></g></g>
</svg>