<?xml version="1.0" encoding="utf-8"?>
<!-- Generator: Adobe Illustrator 25.3.1, SVG Export Plug-In . SVG Version: 6.00 Build 0)  -->
<svg version="1.1" id="Layer_1" xmlns="http://www.w3.org/2000/svg" xmlns:xlink="http://www.w3.org/1999/xlink" x="0px" y="0px"
	 viewBox="0 0 40 40" style="enable-background:new 0 0 40 40;" xml:space="preserve">
<style type="text/css">
	.st0{fill:#FFFFFF;}
</style>
<g>
	<circle class="st0" cx="19.9" cy="19.9" r="16"/>
	<path d="M10.8,21H20v-9.2h-9.2V21z M12.8,13.9H18V19h-5.1L12.8,13.9L12.8,13.9z M20,3.3C10.7,3.3,3.3,10.7,3.3,20
		S10.7,36.7,20,36.7S36.7,29.3,36.7,20S29.3,3.3,20,3.3z M8.7,9.8H22V23H8.7V9.8z M32.3,20v2h-4.1v2h4.1v4.1h-2v-2h-4.1v3.1h4.1v2
		H19v-2h-2v-2h-2.1v4.1H8.7v-6.1h2v4.1h2v-4.1H22v2h-3v2h5.1v-3.1h2V20h2v-4.1h2v2h2L32.3,20L32.3,20z M32.3,13.8h-2v-2h-4.1v2h2v2
		h-2v2h-2v-6.1l0,0v-2h8.2L32.3,13.8L32.3,13.8z"/>
</g>
</svg>
